<?xml version="1.0" encoding="UTF-8" standalone="no"?>
<!DOCTYPE svg PUBLIC "-//W3C//DTD SVG 1.1//EN" "http://www.w3.org/Graphics/SVG/1.1/DTD/svg11.dtd">
<svg width="100%" height="100%" viewBox="0 0 759 627" version="1.1" xmlns="http://www.w3.org/2000/svg" xmlns:xlink="http://www.w3.org/1999/xlink" xml:space="preserve" xmlns:serif="http://www.serif.com/" style="fill-rule:evenodd;clip-rule:evenodd;stroke-linejoin:round;stroke-miterlimit:2;">
    <g transform="matrix(1,0,0,1,238.76,137.038)">
        <text x="0px" y="0px" style="font-family:'Avenir-Heavy', 'Avenir', sans-serif;font-weight:900;font-size:54.167px;fill:rgb(88,142,94);">Sustainability</text>
    </g>
    <g transform="matrix(0.624108,-0.804626,1.08937,0.844969,-393.227,444.802)">
        <path d="M316.607,298.744L316.607,305.976L303.724,296.461L316.607,286.945L316.607,294.177L653.99,294.177L653.99,286.945L666.873,296.461L653.99,305.976L653.99,298.744L316.607,298.744Z" style="fill:rgb(116,115,115);"/>
    </g>
    <g transform="matrix(0.643607,0.856974,-1.10238,0.827917,605.499,-348.228)">
        <path d="M315.965,298.744L315.965,305.976L303.724,296.461L315.965,286.945L315.965,294.177L654.633,294.177L654.633,286.945L666.873,296.461L654.633,305.976L654.633,298.744L315.965,298.744Z" style="fill:rgb(116,115,115);"/>
    </g>
    <g transform="matrix(1,0,0,1,2.56104,-36.8648)">
        <text x="365.715px" y="217.723px" style="font-family:'Avenir-Medium', 'Avenir';font-weight:500;font-size:28px;fill:rgb(88,142,94);">impact</text>
        <text x="357.931px" y="245.723px" style="font-family:'Avenir-Medium', 'Avenir';font-weight:500;font-size:28px;fill:rgb(88,142,94);">investor</text>
    </g>
    <g transform="matrix(1,0,0,1,-426.925,401.155)">
        <g transform="matrix(1,0,0,1,431.925,95.34)">
            <text x="0px" y="0px" style="font-family:'Avenir-Heavy', 'Avenir', sans-serif;font-weight:900;font-size:54.167px;fill:rgb(217,50,50);">A</text>
        </g>
        <g transform="matrix(1,0,0,1,470.058,95.34)">
            <text x="0px" y="0px" style="font-family:'Avenir-Heavy', 'Avenir', sans-serif;font-weight:900;font-size:54.167px;fill:rgb(217,50,50);">verage</text>
        </g>
    </g>
    <g transform="matrix(1,0,0,1,-426.925,401.155)">
        <g transform="matrix(1,0,0,1,448.012,149.507)">
            <text x="0px" y="0px" style="font-family:'Avenir-Heavy', 'Avenir', sans-serif;font-weight:900;font-size:54.167px;fill:rgb(217,50,50);">r</text>
        </g>
        <g transform="matrix(1,0,0,1,468.108,149.507)">
            <text x="0px" y="0px" style="font-family:'Avenir-Heavy', 'Avenir', sans-serif;font-weight:900;font-size:54.167px;fill:rgb(217,50,50);">etur</text>
        </g>
        <g transform="matrix(1,0,0,1,573.408,149.507)">
            <text x="0px" y="0px" style="font-family:'Avenir-Heavy', 'Avenir', sans-serif;font-weight:900;font-size:54.167px;fill:rgb(217,50,50);">ns</text>
        </g>
    </g>
    <g transform="matrix(1,0,0,1,628.03,536.75)">
        <text x="0px" y="0px" style="font-family:'Avenir-Heavy', 'Avenir', sans-serif;font-weight:900;font-size:66.667px;fill:rgb(69,122,171);">Risk</text>
    </g>
    <g transform="matrix(0.671754,0,0,1,-88.016,55.9527)">
        <path d="M469.764,467.344L469.764,477.858L449.194,464.04L469.764,450.223L469.764,460.736L1030.53,460.736L1030.53,450.223L1051.1,464.04L1030.53,477.858L1030.53,467.344L469.764,467.344Z" style="fill:rgb(116,115,115);"/>
    </g>
    <g transform="matrix(1,0,0,1,240.014,559.045)">
        <text x="0px" y="0px" style="font-family:'Avenir-Roman', 'Avenir', sans-serif;font-size:33.333px;">risk aversion estimation</text>
    </g>
    <g transform="matrix(1,0,0,1,-340.283,250.206)">
        <g transform="matrix(1,0,0,1,598.197,342.172)">
            <text x="0px" y="0px" style="font-family:'Avenir-Roman', 'Avenir', sans-serif;font-size:33.333px;fill:rgb(201,201,201);">r</text>
        </g>
        <g transform="matrix(1,0,0,1,609.33,342.172)">
            <text x="0px" y="0px" style="font-family:'Avenir-Roman', 'Avenir', sans-serif;font-size:33.333px;fill:rgb(201,201,201);">evealed pr</text>
        </g>
        <g transform="matrix(1,0,0,1,767.43,342.172)">
            <text x="0px" y="0px" style="font-family:'Avenir-Roman', 'Avenir', sans-serif;font-size:33.333px;fill:rgb(201,201,201);">efer</text>
        </g>
        <g transform="matrix(1,0,0,1,826.13,342.172)">
            <text x="0px" y="0px" style="font-family:'Avenir-Roman', 'Avenir', sans-serif;font-size:33.333px;fill:rgb(201,201,201);">ences</text>
        </g>
    </g>
    <g transform="matrix(1,0,0,1,27.546,230.797)">
        <text x="0px" y="0px" style="font-family:'Avenir-Roman', 'Avenir', sans-serif;font-size:33.333px;fill:rgb(121,121,122);">warm glow</text>
    </g>
    <g transform="matrix(1,0,0,1,8.712,264.13)">
        <text x="0px" y="0px" style="font-family:'Avenir-Roman', 'Avenir', sans-serif;font-size:33.333px;fill:rgb(121,121,122);">willingness to</text>
    </g>
    <g transform="matrix(1,0,0,1,-305.662,24.6087)">
        <g transform="matrix(1,0,0,1,311.208,272.855)">
            <text x="0px" y="0px" style="font-family:'Avenir-Roman', 'Avenir', sans-serif;font-size:33.333px;fill:rgb(121,121,122);">r</text>
        </g>
        <g transform="matrix(1,0,0,1,322.341,272.855)">
            <text x="0px" y="0px" style="font-family:'Avenir-Roman', 'Avenir', sans-serif;font-size:33.333px;fill:rgb(121,121,122);">enounce to $</text>
        </g>
    </g>
    <g transform="matrix(1,0,0,1,186.258,69.1286)">
        <text x="0px" y="0px" style="font-family:'Avenir-Heavy', 'Avenir', sans-serif;font-weight:900;font-size:62.5px;">PREFERENCES</text>
    </g>
    <g transform="matrix(1,0,0,1,542.257,212.753)">
        <text x="0px" y="0px" style="font-family:'Avenir-Roman', 'Avenir', sans-serif;font-size:33.333px;fill:rgb(153,154,154);">~unknown</text>
    </g>
    <g transform="matrix(1,0,0,1,563.497,246.087)">
        <text x="0px" y="0px" style="font-family:'Avenir-Roman', 'Avenir', sans-serif;font-size:33.333px;fill:rgb(153,154,154);">territory</text>
    </g>
    <g transform="matrix(1,0,0,1,16.4058,-32.1874)">
        <text x="590.847px" y="308.883px" style="font-family:'Avenir-Black', 'Avenir', sans-serif;font-weight:800;font-size:17.333px;">(limited/no</text>
        <text x="598.387px" y="326.217px" style="font-family:'Avenir-Black', 'Avenir', sans-serif;font-weight:800;font-size:17.333px;">r<tspan x="605.13px 615.079px " y="326.217px 326.217px ">es</tspan>ear<tspan x="649.105px 657.459px " y="326.217px 326.217px ">ch</tspan>)</text>
    </g>
    <g transform="matrix(1,0,0,1,-53.4246,14.8756)">
        <text x="238.031px" y="418.367px" style="font-family:'Avenir-Medium', 'Avenir';font-weight:500;font-size:28px;fill:rgb(217,50,50);">speculator</text>
    </g>
    <g transform="matrix(1,0,0,1,62.0676,34.9335)">
        <text x="482.553px" y="422.736px" style="font-family:'Avenir-Medium', 'Avenir';font-weight:500;font-size:28px;fill:rgb(69,122,171);">prudent</text>
        <text x="482.553px" y="450.736px" style="font-family:'Avenir-Medium', 'Avenir';font-weight:500;font-size:28px;fill:rgb(69,122,171);">saver</text>
    </g>
</svg>
