<?xml version="1.0" encoding="UTF-8" standalone="no"?>
<!DOCTYPE svg PUBLIC "-//W3C//DTD SVG 1.1//EN" "http://www.w3.org/Graphics/SVG/1.1/DTD/svg11.dtd">
<svg width="100%" height="100%" viewBox="0 0 1418 426" version="1.1" xmlns="http://www.w3.org/2000/svg" xmlns:xlink="http://www.w3.org/1999/xlink" xml:space="preserve" xmlns:serif="http://www.serif.com/" style="fill-rule:evenodd;clip-rule:evenodd;stroke-linejoin:round;stroke-miterlimit:2;">
    <g transform="matrix(1,0,0,1,49.549,29.0203)">
        <rect x="53.778" y="29.505" width="1308.88" height="67.033" style="fill:url(#_Linear1);"/>
    </g>
    <g transform="matrix(1,0,0,1,53.62,-4.48998)">
        <text x="597.231px" y="47.528px" style="font-family:'Avenir-Medium', 'Avenir';font-weight:500;font-size:50px;">All ﬁrms</text>
    </g>
    <g transform="matrix(1.00249,0,0,1,39.8401,50)">
        <rect x="64.299" y="161.293" width="648.482" height="59.173" style="fill:rgb(123,109,84);"/>
    </g>
    <g transform="matrix(1.2741,0,0,1,263.19,195.488)">
        <rect x="64.299" y="161.293" width="648.482" height="59.173" style="fill:rgb(126,126,126);"/>
    </g>
    <g transform="matrix(0.361821,0,0,1,81.0587,195.488)">
        <rect x="64.299" y="161.293" width="648.482" height="59.173" style="fill:rgb(109,76,15);"/>
    </g>
    <g transform="matrix(0.361821,0,0,1,1154.39,195.488)">
        <rect x="64.299" y="161.293" width="648.482" height="59.173" style="fill:rgb(21,109,15);"/>
    </g>
    <g transform="matrix(1.00353,0,0,1,696.135,49.3831)">
        <rect x="64.299" y="161.293" width="648.482" height="59.173" style="fill:rgb(92,115,95);"/>
    </g>
    <g transform="matrix(1,0,0,1,-168.151,-186.746)">
        <text x="307.596px" y="385.051px" style="font-family:'Avenir-Roman', 'Avenir', sans-serif;font-size:45.833px;">Br<tspan x="351.78px 379.005px " y="385.051px 385.051px ">ow</tspan>n half (not very &quot;pur<tspan x="824.138px 849.621px " y="385.051px 385.051px ">e&quot;</tspan>)</text>
    </g>
    <g transform="matrix(1,0,0,1,505.846,-187.661)">
        <text x="307.596px" y="385.051px" style="font-family:'Avenir-Roman', 'Avenir', sans-serif;font-size:45.833px;">Gr<tspan x="358.563px 384.046px " y="385.051px 385.051px ">ee</tspan>n half (not very &quot;pur<tspan x="820.7px 846.184px " y="385.051px 385.051px ">e&quot;</tspan>)</text>
    </g>
    <g transform="matrix(1,0,0,1,-126.368,-132.178)">
        <text x="131.597px" y="384.731px" style="font-family:'Avenir-Black', 'Avenir', sans-serif;font-weight:800;font-size:33.333px;">q=0.5</text>
    </g>
    <g transform="matrix(1,0,0,1,-125.983,11.913)">
        <text x="131.597px" y="384.731px" style="font-family:'Avenir-Black', 'Avenir', sans-serif;font-weight:800;font-size:33.333px;">q=0.2</text>
    </g>
    <g transform="matrix(1,0,0,1,-56.7439,30.5253)">
        <text x="165.889px" y="318.723px" style="font-family:'Avenir-Book', 'Avenir';font-size:33.333px;">top 20% br<tspan x="331.289px 351.056px " y="318.723px 318.723px ">ow</tspan>n</text>
    </g>
    <g transform="matrix(1,0,0,1,1020.91,26.7586)">
        <text x="165.889px" y="318.723px" style="font-family:'Avenir-Book', 'Avenir';font-size:33.333px;">top 20% gr<tspan x="331.289px 349.823px " y="318.723px 318.723px ">ee</tspan>n</text>
    </g>
    <g transform="matrix(1,0,0,1,0,31.6281)">
        <text x="526.229px" y="314.137px" style="font-family:'Avenir-Book', 'Avenir';font-size:33.333px;">60% not very br<tspan x="760.796px 780.562px " y="314.137px 314.137px ">ow</tspan>n, not very gr<tspan x="1002.16px 1020.7px " y="314.137px 314.137px ">ee</tspan>n</text>
    </g>
    <defs>
        <linearGradient id="_Linear1" x1="0" y1="0" x2="1" y2="0" gradientUnits="userSpaceOnUse" gradientTransform="matrix(1308.88,0,0,67.0332,53.7781,63.0215)"><stop offset="0" style="stop-color:rgb(95,57,20);stop-opacity:1"/><stop offset="1" style="stop-color:rgb(104,189,69);stop-opacity:1"/></linearGradient>
    </defs>
</svg>
