<?xml version="1.0" encoding="UTF-8" standalone="no"?>
<!DOCTYPE svg PUBLIC "-//W3C//DTD SVG 1.1//EN" "http://www.w3.org/Graphics/SVG/1.1/DTD/svg11.dtd">
<svg width="100%" height="100%" viewBox="0 0 1418 591" version="1.1" xmlns="http://www.w3.org/2000/svg" xmlns:xlink="http://www.w3.org/1999/xlink" xml:space="preserve" xmlns:serif="http://www.serif.com/" style="fill-rule:evenodd;clip-rule:evenodd;stroke-linecap:round;stroke-linejoin:round;stroke-miterlimit:1.5;">
    <g transform="matrix(0.984433,0,0,0.845414,20.5066,83.0426)">
        <path d="M43.421,29.638L43.421,537.195L1317.28,537.195" style="fill:none;stroke:black;stroke-width:3.18px;"/>
    </g>
    <g transform="matrix(1,0,0,1,-147.126,-134.497)">
        <path d="M210.648,223.332L221.777,245.845L199.519,245.845L210.648,223.332Z" style="stroke:rgb(235,235,235);stroke-width:2.92px;"/>
    </g>
    <g transform="matrix(0.00024465,1,-1,0.00024465,1561.35,326.512)">
        <path d="M210.648,223.332L221.777,245.845L199.519,245.845L210.648,223.332Z" style="stroke:rgb(235,235,235);stroke-width:2.92px;"/>
    </g>
    <g transform="matrix(1,0,0,1,-6.11271,13.7087)">
        <text x="1281.17px" y="487.015px" style="font-family:'ArialMT', 'Arial', sans-serif;font-size:50px;">ESG</text>
    </g>
    <g transform="matrix(1,0,0,1,-96.5286,-8.12111)">
        <text x="105.993px" y="42.497px" style="font-family:'ArialMT', 'Arial', sans-serif;font-size:41.667px;">average</text>
        <text x="105.993px" y="85.527px" style="font-family:'ArialMT', 'Arial', sans-serif;font-size:41.667px;">returns</text>
    </g>
    <g transform="matrix(1,0,0,1,7.69649,11.4135)">
        <path d="M154.332,126.164C154.332,126.164 635.841,928.332 1223.52,121.21" style="fill:none;stroke:url(#_Linear1);stroke-width:16.67px;"/>
    </g>
    <g transform="matrix(1,0,0,1,-129.838,234.864)">
        <text x="221.804px" y="104.932px" style="font-family:'ArialMT', 'Arial', sans-serif;font-size:50px;fill:rgb(113,74,20);">brown</text>
        <text x="235.744px" y="156.568px" style="font-family:'ArialMT', 'Arial', sans-serif;font-size:50px;fill:rgb(113,74,20);">ﬁrms</text>
    </g>
    <g transform="matrix(1,0,0,1,900.952,230.225)">
        <text x="225.954px" y="104.932px" style="font-family:'ArialMT', 'Arial', sans-serif;font-size:50px;fill:rgb(69,169,69);">green</text>
        <text x="235.744px" y="156.568px" style="font-family:'ArialMT', 'Arial', sans-serif;font-size:50px;fill:rgb(69,169,69);">ﬁrms</text>
    </g>
    <g transform="matrix(1,0,0,1,398.061,230.225)">
        <text x="241.262px" y="104.932px" style="font-family:'ArialMT', 'Arial', sans-serif;font-size:50px;fill:rgb(138,139,138);">grey</text>
        <text x="235.744px" y="156.568px" style="font-family:'ArialMT', 'Arial', sans-serif;font-size:50px;fill:rgb(138,139,138);">ﬁrms</text>
    </g>
    <defs>
        <linearGradient id="_Linear1" x1="0" y1="0" x2="1" y2="0" gradientUnits="userSpaceOnUse" gradientTransform="matrix(1069.19,0,0,360.01,154.332,301.215)"><stop offset="0" style="stop-color:rgb(114,75,29);stop-opacity:1"/><stop offset="0.5" style="stop-color:rgb(138,136,126);stop-opacity:1"/><stop offset="1" style="stop-color:rgb(109,190,68);stop-opacity:1"/></linearGradient>
    </defs>
</svg>
