<?xml version="1.0" encoding="UTF-8" standalone="no"?>
<!DOCTYPE svg PUBLIC "-//W3C//DTD SVG 1.1//EN" "http://www.w3.org/Graphics/SVG/1.1/DTD/svg11.dtd">
<svg width="100%" height="100%" viewBox="0 0 759 627" version="1.1" xmlns="http://www.w3.org/2000/svg" xmlns:xlink="http://www.w3.org/1999/xlink" xml:space="preserve" xmlns:serif="http://www.serif.com/" style="fill-rule:evenodd;clip-rule:evenodd;stroke-linejoin:round;stroke-miterlimit:2;">
    <g transform="matrix(1,0,0,1,238.76,137.038)">
        <text x="0px" y="0px" style="font-family:'Avenir-Heavy', 'Avenir', sans-serif;font-weight:900;font-size:54.167px;fill:rgb(88,142,94);">Sustainability</text>
    </g>
    <g transform="matrix(0.624108,-0.804626,1.08937,0.844969,-393.227,444.802)">
        <path d="M316.607,298.744L316.607,305.976L303.724,296.461L316.607,286.945L316.607,294.177L653.99,294.177L653.99,286.945L666.873,296.461L653.99,305.976L653.99,298.744L316.607,298.744Z" style="fill:rgb(116,115,115);"/>
    </g>
    <g transform="matrix(0.643607,0.856974,-1.10238,0.827917,605.499,-348.228)">
        <path d="M315.965,298.744L315.965,305.976L303.724,296.461L315.965,286.945L315.965,294.177L654.633,294.177L654.633,286.945L666.873,296.461L654.633,305.976L654.633,298.744L315.965,298.744Z" style="fill:rgb(116,115,115);"/>
    </g>
    <g transform="matrix(1,0,0,1,2.56104,-36.8648)">
        <g transform="matrix(1,0,0,1,365.715,217.723)">
            <text x="0px" y="0px" style="font-family:'Avenir-Medium', 'Avenir';font-weight:500;font-size:28px;fill:rgb(88,142,94);">impact</text>
        </g>
        <g transform="matrix(1,0,0,1,357.931,245.723)">
            <text x="0px" y="0px" style="font-family:'Avenir-Medium', 'Avenir';font-weight:500;font-size:28px;fill:rgb(88,142,94);">investor</text>
        </g>
    </g>
    <g transform="matrix(1,0,0,1,-426.925,401.155)">
        <g transform="matrix(1,0,0,1,431.925,95.34)">
            <text x="0px" y="0px" style="font-family:'Avenir-Heavy', 'Avenir', sans-serif;font-weight:900;font-size:54.167px;fill:rgb(217,50,50);">A</text>
        </g>
        <g transform="matrix(1,0,0,1,470.058,95.34)">
            <text x="0px" y="0px" style="font-family:'Avenir-Heavy', 'Avenir', sans-serif;font-weight:900;font-size:54.167px;fill:rgb(217,50,50);">verage</text>
        </g>
    </g>
    <g transform="matrix(1,0,0,1,-426.925,401.155)">
        <g transform="matrix(1,0,0,1,448.012,149.507)">
            <text x="0px" y="0px" style="font-family:'Avenir-Heavy', 'Avenir', sans-serif;font-weight:900;font-size:54.167px;fill:rgb(217,50,50);">r</text>
        </g>
        <g transform="matrix(1,0,0,1,468.108,149.507)">
            <text x="0px" y="0px" style="font-family:'Avenir-Heavy', 'Avenir', sans-serif;font-weight:900;font-size:54.167px;fill:rgb(217,50,50);">etur</text>
        </g>
        <g transform="matrix(1,0,0,1,573.408,149.507)">
            <text x="0px" y="0px" style="font-family:'Avenir-Heavy', 'Avenir', sans-serif;font-weight:900;font-size:54.167px;fill:rgb(217,50,50);">ns</text>
        </g>
    </g>
    <g transform="matrix(1,0,0,1,628.03,536.75)">
        <text x="0px" y="0px" style="font-family:'Avenir-Heavy', 'Avenir', sans-serif;font-weight:900;font-size:66.667px;fill:rgb(69,122,171);">Risk</text>
    </g>
    <g transform="matrix(0.671754,0,0,1,-88.016,55.9527)">
        <path d="M469.764,467.344L469.764,477.858L449.194,464.04L469.764,450.223L469.764,460.736L1030.53,460.736L1030.53,450.223L1051.1,464.04L1030.53,477.858L1030.53,467.344L469.764,467.344Z" style="fill:rgb(116,115,115);"/>
    </g>
    <g transform="matrix(1,0,0,1,-11.2739,-4.87186)">
        <text x="277.863px" y="579.021px" style="font-family:'Avenir-Black', 'Avenir', sans-serif;font-weight:800;font-size:36px;">traditional ﬁnance</text>
    </g>
    <g transform="matrix(1,0,0,1,-5.15705,-3.30349)">
        <g>
            <text x="34.979px" y="226.149px" style="font-family:'Avenir-Black', 'Avenir', sans-serif;font-weight:800;font-size:36px;">traditional</text>
            <text x="34.979px" y="262.149px" style="font-family:'Avenir-Black', 'Avenir', sans-serif;font-weight:800;font-size:36px;">sustainable</text>
            <text x="34.979px" y="298.149px" style="font-family:'Avenir-Black', 'Avenir', sans-serif;font-weight:800;font-size:36px;">ﬁnance</text>
        </g>
    </g>
    <g transform="matrix(1,0,0,1,186.258,69.1286)">
        <text x="0px" y="0px" style="font-family:'Avenir-Heavy', 'Avenir', sans-serif;font-weight:900;font-size:62.5px;">PREFERENCES</text>
    </g>
    <g transform="matrix(1,0,0,1,41.8267,-19.0925)">
        <g>
            <text x="596.734px" y="221.847px" style="font-family:'Avenir-Black', 'Avenir', sans-serif;font-weight:800;font-size:24px;">less</text>
            <text x="546.754px" y="245.847px" style="font-family:'Avenir-Black', 'Avenir', sans-serif;font-weight:800;font-size:24px;">documented</text>
            <text x="589.186px" y="269.847px" style="font-family:'Avenir-Black', 'Avenir', sans-serif;font-weight:800;font-size:24px;">topic</text>
            <text x="555.214px" y="293.847px" style="font-family:'Avenir-Black', 'Avenir', sans-serif;font-weight:800;font-size:24px;">(except for</text>
            <text x="569.446px" y="317.847px" style="font-family:'Avenir-Black', 'Avenir', sans-serif;font-weight:800;font-size:24px;">COVID!)</text>
        </g>
    </g>
    <g transform="matrix(1,0,0,1,184.606,433.243)">
        <text x="0px" y="0px" style="font-family:'Avenir-Medium', 'Avenir';font-weight:500;font-size:28px;fill:rgb(217,50,50);">speculator</text>
    </g>
    <g transform="matrix(1,0,0,1,62.0676,34.9335)">
        <g transform="matrix(1,0,0,1,482.553,422.736)">
            <text x="0px" y="0px" style="font-family:'Avenir-Medium', 'Avenir';font-weight:500;font-size:28px;fill:rgb(69,122,171);">prudent</text>
        </g>
        <g transform="matrix(1,0,0,1,482.553,450.736)">
            <text x="0px" y="0px" style="font-family:'Avenir-Medium', 'Avenir';font-weight:500;font-size:28px;fill:rgb(69,122,171);">saver</text>
        </g>
    </g>
</svg>
